# xmcd CD database file
#
# Track frame offsets:
#	150
#	19396
#	40352
#	58884
#
# Disc length: 1040 seconds
#
# Revision: 0
# Processed by: cddbd v1.5.1PL0 Copyright (c) Steve Scherf et al.
# Submitted via: CDex 1.51
#
DISCID=35040e04
DTITLE=Fortuna - ONE WISH
DYEAR=2004
DGENRE=JPop
TTITLE0=ONE WISH
TTITLE1=Mnemosyne
TTITLE2=float
TTITLE3=ONE WISH(Inst)
EXTD=YEAR: 2004
EXTT0=
EXTT1=
EXTT2=
EXTT3=
PLAYORDER=
